<mxfile host="app.diagrams.net" modified="2022-12-26T01:27:51.305Z" agent="5.0 (Windows NT 10.0; Win64; x64) AppleWebKit/537.36 (KHTML, like Gecko) Chrome/108.0.0.0 Safari/537.36 Edg/108.0.1462.54" etag="SguxIrMluMHUyfBugkY3" version="20.7.4" type="github">
  <diagram id="C5RBs43oDa-KdzZeNtuy" name="Page-1">
    <mxGraphModel dx="504" dy="751" grid="1" gridSize="10" guides="1" tooltips="1" connect="1" arrows="1" fold="1" page="1" pageScale="1" pageWidth="827" pageHeight="1169" math="0" shadow="0">
      <root>
        <mxCell id="WIyWlLk6GJQsqaUBKTNV-0" />
        <mxCell id="WIyWlLk6GJQsqaUBKTNV-1" parent="WIyWlLk6GJQsqaUBKTNV-0" />
        <mxCell id="WIyWlLk6GJQsqaUBKTNV-2" value="" style="rounded=0;html=1;jettySize=auto;orthogonalLoop=1;fontSize=11;endArrow=block;endFill=0;endSize=8;strokeWidth=1;shadow=0;labelBackgroundColor=none;edgeStyle=orthogonalEdgeStyle;entryX=0.5;entryY=0;entryDx=0;entryDy=0;" parent="WIyWlLk6GJQsqaUBKTNV-1" source="WIyWlLk6GJQsqaUBKTNV-3" target="bZgQkgXRjN2bV9j6nTZj-0" edge="1">
          <mxGeometry relative="1" as="geometry">
            <mxPoint x="220" y="170" as="targetPoint" />
          </mxGeometry>
        </mxCell>
        <mxCell id="WIyWlLk6GJQsqaUBKTNV-3" value="START" style="rounded=1;whiteSpace=wrap;html=1;fontSize=12;glass=0;strokeWidth=1;shadow=0;" parent="WIyWlLk6GJQsqaUBKTNV-1" vertex="1">
          <mxGeometry x="354" y="80" width="120" height="40" as="geometry" />
        </mxCell>
        <mxCell id="bZgQkgXRjN2bV9j6nTZj-2" value="" style="edgeStyle=none;curved=1;rounded=0;orthogonalLoop=1;jettySize=auto;html=1;fontSize=12;endArrow=open;startSize=14;endSize=14;sourcePerimeterSpacing=8;targetPerimeterSpacing=8;" edge="1" parent="WIyWlLk6GJQsqaUBKTNV-1" source="bZgQkgXRjN2bV9j6nTZj-0" target="bZgQkgXRjN2bV9j6nTZj-1">
          <mxGeometry relative="1" as="geometry" />
        </mxCell>
        <mxCell id="bZgQkgXRjN2bV9j6nTZj-0" value="Random Word Generate" style="rounded=1;whiteSpace=wrap;html=1;fontSize=16;" vertex="1" parent="WIyWlLk6GJQsqaUBKTNV-1">
          <mxGeometry x="354" y="170" width="120" height="60" as="geometry" />
        </mxCell>
        <mxCell id="bZgQkgXRjN2bV9j6nTZj-7" value="" style="edgeStyle=none;curved=1;rounded=0;orthogonalLoop=1;jettySize=auto;html=1;fontSize=12;endArrow=open;startSize=14;endSize=14;sourcePerimeterSpacing=8;targetPerimeterSpacing=8;entryX=0.5;entryY=0;entryDx=0;entryDy=0;" edge="1" parent="WIyWlLk6GJQsqaUBKTNV-1" source="bZgQkgXRjN2bV9j6nTZj-1" target="bZgQkgXRjN2bV9j6nTZj-10">
          <mxGeometry relative="1" as="geometry">
            <mxPoint x="414" y="382" as="targetPoint" />
          </mxGeometry>
        </mxCell>
        <mxCell id="bZgQkgXRjN2bV9j6nTZj-1" value="Blank Line Generate for Letter in &lt;br&gt;Random Word" style="whiteSpace=wrap;html=1;fontSize=16;rounded=1;" vertex="1" parent="WIyWlLk6GJQsqaUBKTNV-1">
          <mxGeometry x="334" y="280" width="160" height="70" as="geometry" />
        </mxCell>
        <mxCell id="bZgQkgXRjN2bV9j6nTZj-9" value="" style="edgeStyle=none;curved=1;rounded=0;orthogonalLoop=1;jettySize=auto;html=1;fontSize=12;endArrow=open;startSize=14;endSize=14;sourcePerimeterSpacing=8;targetPerimeterSpacing=8;exitX=0.5;exitY=1;exitDx=0;exitDy=0;" edge="1" parent="WIyWlLk6GJQsqaUBKTNV-1" source="bZgQkgXRjN2bV9j6nTZj-10" target="bZgQkgXRjN2bV9j6nTZj-8">
          <mxGeometry relative="1" as="geometry">
            <mxPoint x="414" y="528" as="sourcePoint" />
          </mxGeometry>
        </mxCell>
        <mxCell id="bZgQkgXRjN2bV9j6nTZj-8" value="Is Letter in&lt;br&gt;Random Word" style="rhombus;whiteSpace=wrap;html=1;fontSize=16;rounded=1;" vertex="1" parent="WIyWlLk6GJQsqaUBKTNV-1">
          <mxGeometry x="348" y="540" width="140" height="130" as="geometry" />
        </mxCell>
        <mxCell id="bZgQkgXRjN2bV9j6nTZj-10" value="Prompt User:&lt;br&gt;Enter Letter" style="whiteSpace=wrap;html=1;fontSize=16;rounded=1;" vertex="1" parent="WIyWlLk6GJQsqaUBKTNV-1">
          <mxGeometry x="344" y="410" width="144" height="70" as="geometry" />
        </mxCell>
      </root>
    </mxGraphModel>
  </diagram>
</mxfile>
